# xmcd
#
# Track frame offsets:
#	150
#	945
#	17436
#	56638
#	123008
#	154406
#	203819
#	212601
#	226920
#	249431
#	278284
#	307606
#	327753
#
# Disc length: 4770 seconds
#
# Revision: 1
# Processed by: cddbd v1.5.2PL0 Copyright (c) Steve Scherf et al.
# Submitted via: audiograbber 1.83.01
#
DISCID=8f12a00d
DTITLE=Ten Years Later - Rockpalast '78 in essen
DYEAR=1900
DGENRE=
TTITLE0=Intro von Albrecht Metzger
TTITLE1=Gonna Turn You On
TTITLE2=Help Me
TTITLE3=Ain't Nothin' Shakin'
TTITLE4=Hey Joe
TTITLE5=I'm Going Home
TTITLE6=Choo Choo Mama
TTITLE7=Rip It Up
TTITLE8=Love Like A Man
TTITLE9=I May Be Wrong But I Wont Be Wrong Always
TTITLE10=Good Morning Little School Girl 
TTITLE11=At The Woodchoppers Ball
TTITLE12=Slow Blues In C
EXTD=
EXTT0=
EXTT1=
EXTT2=
EXTT3=
EXTT4=
EXTT5=
EXTT6=
EXTT7=
EXTT8=
EXTT9=
EXTT10=
EXTT11=
EXTT12=
PLAYORDER=
